<svg width="116" height="115" viewBox="0 0 116 115" xmlns="http://www.w3.org/2000/svg" xmlns:xlink="http://www.w3.org/1999/xlink"><title>Partially Sunny</title><defs><linearGradient x1="17.377%" y1="15.774%" x2="50%" y2="50%" id="c"><stop stop-color="#FFEC69" offset="0%"/><stop stop-color="#FBDA55" offset="100%"/><stop stop-color="#F8D750" offset="100%"/><stop stop-color="#E3BF36" offset="100%"/></linearGradient><linearGradient x1="29.638%" y1="12.699%" x2="91.808%" y2="80.958%" id="e"><stop stop-color="#E9E9E9" offset="0%"/><stop stop-color="#CDCDCD" offset="100%"/></linearGradient><path d="M36.2 49.801h38.874a18.218 18.218 0 0 0 .014 0h.326c.059 0 .117-.002.176-.007 8.608-.246 15.504-6.709 15.504-14.645 0-8.092-7.17-14.652-16.013-14.652-.777 0-1.541.05-2.289.148l.001-.148C72.793 9.707 63.575.96 52.205.96c-9.75 0-17.918 6.432-20.048 15.069-8.166 1.716-14.266 8.53-14.266 16.677 0 9.056 7.54 16.467 17.075 17.056.137.025.275.038.412.038h.806a20.395 20.395 0 0 0 .015 0z" id="a"/><mask id="d" x="0" y="0" width="73.202" height="48.841" fill="#fff"><use xlink:href="#a"/></mask><linearGradient x1="26.018%" y1="33.099%" x2="89.175%" y2="83.132%" id="g"><stop stop-color="#F2F2F2" offset="0%"/><stop stop-color="#E0E0E0" offset="100%"/></linearGradient><path d="M13.62 50.035h28.328l.08-.001.2.001c6.508 0 11.783-4.827 11.783-10.781 0-5.955-5.275-10.782-11.782-10.782-.572 0-1.134.038-1.684.11v-.11c0-7.939-6.782-14.375-15.149-14.375-7.174 0-13.184 4.733-14.75 11.088C4.635 26.448.147 31.463.147 37.457c0 6.91 5.965 12.518 13.348 12.578h.112a14.198 14.198 0 0 0 .011 0z" id="b"/><mask id="f" x="0" y="0" width="53.864" height="35.938" fill="#fff"><use xlink:href="#b"/></mask></defs><g fill="none" fill-rule="evenodd"><path d="M-6-7h128v128H-6z"/><path fill="#CC9E1B" d="M16.547 17.063h81.284v81.284H16.547z"/><path fill="#F6A623" d="M0 57.476L57.476 0l57.477 57.476-57.477 57.477z"/><path d="M58.5 103c25.129 0 45.5-20.371 45.5-45.5S83.629 12 58.5 12 13 32.371 13 57.5 33.371 103 58.5 103z" fill="url(#c)"/><path d="M58.5 103c25.129 0 45.5-20.371 45.5-45.5S83.629 12 58.5 12 13 32.371 13 57.5 33.371 103 58.5 103z" fill="#FBDF6B"/><g transform="translate(24 40)" stroke="#979797" stroke-opacity=".32" stroke-width=".4"><use mask="url(#d)" fill="url(#e)" xlink:href="#a"/><use mask="url(#f)" fill="url(#g)" xlink:href="#b"/></g></g></svg>