<svg width="110" height="89" viewBox="0 0 110 89" xmlns="http://www.w3.org/2000/svg" xmlns:xlink="http://www.w3.org/1999/xlink"><title>Storm</title><defs><linearGradient x1="25.938%" y1="20.02%" x2="90.765%" y2="100%" id="b"><stop stop-color="#D0D0D0" offset="0%"/><stop stop-color="#A3A3A3" offset="100%"/></linearGradient><path d="M76.25 84.524L62 87.27l7.698-23.237-.022-.034h14.318l-5.798 12.734.005.007v.26L94 74.042l-24.494 38.485 6.744-28.004z" id="d"/><filter x="-50%" y="-50%" width="200%" height="200%" filterUnits="objectBoundingBox" id="c"><feOffset in="SourceAlpha" result="shadowOffsetOuter1"/><feGaussianBlur stdDeviation=".5" in="shadowOffsetOuter1" result="shadowBlurOuter1"/><feColorMatrix values="0 0 0 0 0.960784314 0 0 0 0 0.650980392 0 0 0 0 0.137254902 0 0 0 1 0" in="shadowBlurOuter1"/></filter><linearGradient x1="14.034%" y1="65.513%" x2="58.048%" y2="32.528%" id="f"><stop stop-color="#DAD7D7" offset="0%"/><stop stop-color="#D6D3D3" offset="100%"/></linearGradient><path d="M63.28 73.768h38.817a18.164 18.164 0 0 0 .014 0h.326c.059 0 .118-.002.176-.007 8.595-.246 15.48-6.699 15.48-14.623 0-8.08-7.158-14.63-15.989-14.63-.775 0-1.538.05-2.284.147v-.148C99.82 33.734 90.616 25 79.263 25c-9.737 0-17.892 6.423-20.018 15.047C51.091 41.76 45 48.565 45 56.699c0 9.043 7.528 16.443 17.049 17.031.137.025.275.038.411.038h.806a20.335 20.335 0 0 0 .015 0z" id="a"/><mask id="e" x="0" y="0" width="73.094" height="48.768" fill="#fff"><use xlink:href="#a"/></mask></defs><g transform="translate(-9 -25)" fill="none" fill-rule="evenodd"><path d="M0 0h128v128H0z"/><path d="M33.807 95.186h51.821c.29.01.58.016.872.016 11.985 0 21.7-8.906 21.7-19.872s-9.715-19.856-21.7-19.856c-1.053 0-2.088.07-3.1.202v-.202C83.4 40.853 70.909 29 55.5 29c-13.214 0-24.282 8.717-27.167 20.42C17.267 51.747 9 60.983 9 72.022c0 12.641 10.916 22.917 24.314 23.16.046.004.093.005.14.005h.34a25.49 25.49 0 0 0 .013 0z" fill="url(#b)"/><use fill="#000" filter="url(#c)" xlink:href="#d"/><use fill="#F6B44B" xlink:href="#d"/><use stroke-opacity=".32" stroke="#979797" mask="url(#e)" stroke-width=".2" fill="url(#f)" xlink:href="#a"/></g></svg>