<svg viewBox="0 0 88 92" xmlns="http://www.w3.org/2000/svg"><title>branch</title><g fill="none" fill-rule="evenodd"><path d="M52.753 37.729c-.194.99-.608 1.758-1.21 2.285 1.73 4.335 3.825 8.934 6.321 13.81 2.529-3.976 6.647-10.922 9.285-17.784a5.662 5.662 0 0 1-1.248-1.337c-.331-.504-2.124-2.712-4.931-4.95-.234.282-.472.551-.716.788-1.738 1.799-3.288 2.857-4.533 3.707-1.701 1.161-2.639 1.801-2.968 3.481zM51.061 50.092a147.856 147.856 0 0 1-2.96-9.341 8.256 8.256 0 0 1-1.994-.633c-.876-.41-5.801-2.194-11.864-2.815-.065 1.138-.242 2.057-.396 2.831-.292 1.464-.426 2.132.334 3.18.572.789.724 1.468.699 2.009 6.379 2.274 12.615 3.909 16.181 4.769z"/><path d="M83.514 25.13c1.248-1.733 2.572-4.253 1.84-5.335-.586-.829-2.71-1.002-4.388-1.002-.552 0-1.107.022-1.65.066.054-.275.104-.556.149-.84 1.241-1.706 3.241-5.688 2.016-6.763-.302-.251-.668-.28-.917-.28-.204 0-.436.024-.674.062-.066-2.819-.415-6.541-1.795-6.876-.879-.179-2.273 1.086-4.246 3.845-.751-.633-1.575-1.182-2.174-1.182-.089 0-.233.02-.317.045-1.482.441-1.896 4.975-1.347 7.555a31.652 31.652 0 0 0-.766 1.712c-1.454-2.043-3.577-3.983-4.736-3.862-.201.023-.739.086-1.601 1.17-2.788-2.542-6.279-4.771-7.569-4.771-.195 0-.375.038-.559.125-.793.403-.946 2.002-.742 3.957-1.528.357-3.817 1.465-5.751 2.804a35.75 35.75 0 0 0-.724-1.509c.063-3.058-1.073-7.909-2.67-8.232a1.53 1.53 0 0 0-.203-.018c-.201 0-.676 0-1.731.907C41.466 4.7 37.858.085 36.223.085c-.089 0-.238.02-.323.045-.398.118-1.565.465-1.559 6.743-.88-.171-1.661-.265-2.231-.265-.466 0-.991.048-1.362.427-.231.248-.338.585-.315 1.002.078 1.5 2.106 5.45 4.688 7.83.166.924.356 1.808.57 2.645-2.518-1.14-5.349-1.854-6.915-1.854-.571 0-.977.096-1.288.313-.2.145-.74.536-.814 2.297-3.675-.835-7.179-1.14-9.189-1.14-2.222 0-2.886.322-3.217.833-.835 1.387 2.644 5.438 6.381 8.639-1.096.47-2.075 2.777-2.526 4.829a34.08 34.08 0 0 0-1.146-.465c-1.789-1.799-4.817-3.647-6.012-3.647-.192 0-.369.039-.546.125-.402.208-.638.625-.733 1.331-2.597-.593-5.021-.964-6.376-.964-.636 0-1.272.067-1.635.589-.266.419-.742 1.171 2.866 4.709-1.797.963-1.781 1.545-1.771 1.873.095 1.598 5.406 3.043 7.87 3.235.491.347.977.674 1.453.979-2.377.646-5.032 1.794-5.255 2.971-.057.346-.004.831.706 1.646-2.583 1.262-7.6 4.035-7.171 5.723.586 2.019 9.989 2.181 10.084 2.181.682 0 1.343-.021 1.973-.061.126 1.262.487 3.326 1.521 3.792.176.076.371.113.599.113 1.16 0 3.333-1.033 4.917-2.071.308-.129.618-.322.944-.588 4.505-3.664 10.221-5.481 11.159-5.688.227-.05.657-.161 1.134-.361 9.437 4.399 18.831 7.248 19.412 7.422l.404.119c.395.114.474.137.607.271 7.398 19.469 17.037 35.312 17.134 35.47a.913.913 0 0 0 .469.383 6.58 6.58 0 0 0 2.25.395c2.377 0 4.711-1.274 5.809-3.171a.915.915 0 0 0-.056-1.001c-.096-.129-9.535-12.976-18.214-28.894 1.63-3.013 6.654-12.705 9.167-22.111.699-.117 1.369-.473 1.996-1.09 1.001-.983 1.918-1.067 3.584-1.218 1.23-.112 2.764-.251 4.771-.815 3.157-.792 7.875-4.09 7.614-5.803-.198-1.14-2.591-2.143-4.137-2.678zm-3.946 6.717c-1.871.525-3.311.656-4.468.761-1.807.164-3.233.293-4.699 1.735-.419.411-.823.619-1.202.619-.743 0-1.461-.793-1.769-1.263-.364-.554-2.339-2.991-5.395-5.424 1.952-3.085 3.138-7.185 2.076-8.309-.285-.291-.848-.625-2.683-.625-1.106 0-2.389.125-3.672.345a16.73 16.73 0 0 1-.302-.685c-.021-2.427-.51-5.146-1.553-6.041-.119-.986-.151-1.8-.114-2.305 1.213.528 4.098 2.353 6.617 4.832a.917.917 0 0 0 1.415-.163c.413-.654.734-1.01.909-1.169.782.405 2.867 2.381 3.901 4.481a.917.917 0 0 0 1.693-.128c.348-1.096.843-2.298 1.473-3.572a.914.914 0 0 0 .063-.642c-.507-1.895-.18-4.344.137-5.401.326.223.802.595 1.374 1.146a.911.911 0 0 0 .728.25.908.908 0 0 0 .661-.394c1.244-1.821 2.219-2.953 2.796-3.525.242.996.518 3.015.518 5.801a.916.916 0 0 0 1.155.883c.306-.083.551-.139.745-.176-.25.978-.984 2.772-2.1 4.212a.914.914 0 0 0-.182.421c-.117.768-.264 1.5-.436 2.177a.917.917 0 0 0 1.025 1.129 18.12 18.12 0 0 1 2.684-.197c1.374 0 2.301.145 2.748.264-.19.749-1.009 2.516-2.425 4.112a.915.915 0 0 0 .448 1.49c1.87.501 3.337 1.221 3.939 1.64-.753.915-3.461 3.059-6.105 3.721zM72.98 90.085c-.453 0-.899-.063-1.331-.188-1.331-2.225-10.071-17.092-16.875-35.048a.916.916 0 0 0-.182-.294c-.555-.605-.881-.718-1.565-.916l-.382-.112c-.111-.034-6.066-1.837-13.227-4.76a175.676 175.676 0 0 0 12.866 3.494.915.915 0 0 0 1.064-1.204 154.706 154.706 0 0 1-3.005-9.093c1.824 4.435 4.034 9.145 6.622 14.107a.913.913 0 0 0 1.577.078c1.694-2.592 3.937-6.209 6.078-10.245a127.589 127.589 0 0 1-5.943 12.505.917.917 0 0 0-.002.876c7.81 14.4 16.312 26.395 18.201 29.014-.766.929-2.179 1.786-3.896 1.786zm-53.723-37.6c-.254.207-.43.296-.533.334a.948.948 0 0 0-.188.095c-1.625 1.079-3.163 1.679-3.796 1.798-.212-.453-.505-1.609-.547-3.068a.914.914 0 0 0-1.008-.884c-.842.086-1.761.129-2.729.129-3.37 0-6.475-.505-7.854-.915 1.08-.938 3.723-2.705 6.881-4.046a.916.916 0 0 0 .243-1.531 7.412 7.412 0 0 1-.911-.914c.857-.584 3.364-1.668 5.891-1.96a.916.916 0 0 0 .327-1.716 32.665 32.665 0 0 1-3.546-2.232.913.913 0 0 0-.495-.17c-2.16-.087-4.642-.95-5.854-1.532.328-.19.778-.422 1.356-.675a.917.917 0 0 0 .257-1.508c-1.443-1.345-2.367-2.37-2.89-3.032 1.327.087 3.664.452 6.472 1.149a.915.915 0 0 0 1.135-.914 6.383 6.383 0 0 1 .005-.567c.98.431 2.926 1.586 4.327 3.052a.918.918 0 0 0 .335.222c.825.314 1.597.642 2.295.972a.916.916 0 0 0 1.3-.719c.245-2.075 1.11-3.952 1.551-4.495.374.137 1.096.565 1.907 1.19-1.054 1.281-2.265 3.077-1.812 4.138.738 1.63 6.242 2.179 7.042 2.25.374.102.83.16 1.399.15l.372-.002c.753 0 1.495.03 2.229.073-.055 1.035-.217 1.866-.367 2.617-.313 1.565-.582 2.917.647 4.612.211.292.439.701.326.999-.174.457-1.062.871-1.849 1.043-1.005.223-7.134 2.166-11.918 6.057zm-1.774-32.527c2.115 0 5.975.357 9.892 1.362a.914.914 0 0 0 1.141-.941c-.063-1.026.025-1.623.097-1.886.044-.003.098-.005.163-.005 1.51 0 5.255.993 7.924 2.609a.915.915 0 0 0 1.34-1.074c-.473-1.405-.867-3.013-1.172-4.781a.917.917 0 0 0-.301-.535c-2.177-1.896-3.778-4.95-4.199-6.263.667.036 1.643.201 2.684.457a.916.916 0 0 0 1.132-.907c-.064-3.027.167-4.927.371-5.796.991.79 3.119 3.032 5.532 6.417a.914.914 0 0 0 1.398.111 8.928 8.928 0 0 1 1.015-.91c.506.979 1.346 3.747 1.229 6.402a.904.904 0 0 0 .102.459c.477.923.887 1.813 1.221 2.645a.916.916 0 0 0 1.414.378c2.444-1.924 5.361-3.134 6.359-3.238.42.681 1.056 3.445.72 6.31a.914.914 0 0 0 1.117.997c1.598-.375 3.381-.599 4.77-.599.707 0 1.101.057 1.3.102.076 1.201-1.266 5.543-3.771 7.977-1.628 1.686-3.092 2.685-4.269 3.487-1.821 1.243-3.26 2.225-3.732 4.64-.222 1.133-.791 1.638-1.845 1.638-.772 0-1.658-.286-2.23-.554-1.124-.527-8.551-3.205-16.692-3.205l-.456.002c-.459 0-.732-.054-.882-.1a.87.87 0 0 0-.196-.037c-2.709-.209-4.808-.822-5.503-1.193.221-.581 1.054-1.927 2.589-3.49a.918.918 0 0 0-.167-1.417c-4.64-2.905-8.503-7.37-9.438-8.999.284-.033.714-.063 1.343-.063zm43.488 9.795c2.807 2.238 4.6 4.446 4.931 4.95.173.265.608.851 1.248 1.337-2.638 6.861-6.756 13.808-9.285 17.784-2.496-4.875-4.591-9.475-6.321-13.81.602-.527 1.016-1.296 1.21-2.285.329-1.679 1.267-2.319 2.969-3.48 1.245-.85 2.795-1.908 4.533-3.707.243-.238.481-.507.715-.789zm-26.79 13.56c-.76-1.047-.626-1.716-.334-3.18.154-.774.331-1.693.396-2.831 6.063.621 10.989 2.405 11.864 2.815a8.256 8.256 0 0 0 1.994.633 147.65 147.65 0 0 0 2.96 9.341c-3.566-.86-9.802-2.495-16.181-4.77.024-.54-.127-1.219-.699-2.008z" fill="#FFF"/><path d="M42.506 20.153c1.613 5.603 4.051 14.07 5.805 17.306a.912.912 0 0 0 1.24.368.915.915 0 0 0 .368-1.24c-1.658-3.062-4.16-11.75-5.654-16.94-.701-2.433-1.207-4.19-1.45-4.8a.916.916 0 0 0-1.699.68c.208.524.756 2.425 1.39 4.626zM74.945 15.825a.922.922 0 0 0-1.013.804c-.066.579-1.109 3.242-2.028 5.591-1.52 3.88-3.24 8.279-3.525 10.306a.913.913 0 1 0 1.81.255c.256-1.815 2.009-6.295 3.418-9.895 1.309-3.343 2.053-5.272 2.142-6.049a.914.914 0 0 0-.804-1.012zM30.479 45.262a.915.915 0 0 0 .55-1.744c-3.446-1.088-9.978-4.933-11.856-6.437a.915.915 0 0 0-1.142 1.429c1.942 1.554 8.688 5.565 12.448 6.752z" fill="#FFF"/></g></svg>