<?xml version="1.0" encoding="UTF-8" standalone="no"?>
<svg viewBox="0 0 47 90" version="1.1" xmlns="http://www.w3.org/2000/svg" xmlns:xlink="http://www.w3.org/1999/xlink">
    <!-- Generator: Sketch 3.6.1 (26313) - http://www.bohemiancoding.com/sketch -->
    <title>goat</title>
    <desc>Created with Sketch.</desc>
    <defs></defs>
    <g id="Page-1" stroke="none" stroke-width="1" fill="none" fill-rule="evenodd">
        <g id="goat" fill="#FFFFFF">
            <g id="Group">
                <path d="M29.2,29 C28.5,29 27.9,29.6 27.9,30.3 C27.9,31 28.5,31.6 29.2,31.6 C29.9,31.6 30.5,31 30.5,30.3 C30.6,29.6 30,29 29.2,29 L29.2,29 Z" id="Shape"></path>
                <path d="M17.3,29 C16.6,29 16,29.6 16,30.3 C16,31 16.6,31.6 17.3,31.6 C18,31.6 18.6,31 18.6,30.3 C18.7,29.6 18.1,29 17.3,29 L17.3,29 Z" id="Shape"></path>
                <path d="M46.2,15.5 C46.1,15.3 45.9,15.2 45.7,15.1 C45.5,15 40.5,13.7 36.3,15.9 C34.7,16.7 33.4,17.9 32.5,19.1 C32.3,19 32.1,18.8 31.9,18.7 L32.3,18.4 C34.9,16.2 36.5,13.2 36.8,9.8 C37.1,6.4 36.1,3.2 33.9,0.6 C33.7,0.4 33.5,0.3 33.2,0.3 L33.1,0.3 C32.9,0.3 32.7,0.5 32.5,0.6 C32.4,0.8 32.3,1 32.4,1.3 C34.1,7.1 30.6,13.5 24.7,15.2 L23.4,15.6 L22.4,15.4 C19.6,14.6 17.1,12.6 15.7,9.9 C14.2,7.2 13.8,4.2 14.7,1.4 C14.8,1.2 14.7,0.9 14.6,0.7 C14.5,0.5 14.3,0.4 14,0.4 L13.8,0.4 C13.5,0.4 13.3,0.5 13.1,0.7 C8.6,6 9.3,14 14.7,18.5 L14.9,18.7 C14.7,18.8 14.4,19 14.2,19.2 C13.3,18 12,16.8 10.4,16 C6.2,13.8 1.2,15.2 1,15.2 C0.8,15.3 0.6,15.4 0.5,15.6 C0.4,15.8 0.4,16 0.5,16.2 C0.6,16.4 2.4,21.2 6.6,23.4 C7.7,24 8.8,24.3 9.9,24.5 C9.4,26 9.4,28 10,30.7 C10,30.9 10.6,32.9 11.6,35.6 C10.1,36.7 6.1,40.4 6,49.1 L6,84 C6,86.8 8.3,89.1 11.1,89.1 L16,89.1 L16,89.1 L16,89.1 C16.4,89.1 16.8,88.8 16.8,88.3 L16.8,63.7 C16.8,61.8 18.4,60.2 20.3,60.2 L26.2,60.2 C28.1,60.2 29.7,61.8 29.7,63.7 L29.7,88.1 C29.7,88.5 30,88.9 30.5,88.9 L35.5,88.9 C38.3,88.9 40.6,86.6 40.6,83.8 L40.6,49 C40.6,40.5 36.6,36.7 35.1,35.6 C36.1,33 36.6,31 36.7,30.8 C37.4,28.1 37.3,26 36.8,24.4 C37.9,24.2 39,23.9 40.1,23.3 C44.3,21.1 46.1,16.3 46.2,16.1 C46.3,15.9 46.3,15.7 46.2,15.5 L46.2,15.5 Z M32.9,21.2 C33.5,21.7 34.1,22.3 34.5,22.9 C33.5,22.9 32.6,22.8 32,22.7 C32.2,22.3 32.5,21.8 32.9,21.2 L32.9,21.2 Z M13.7,21.2 C14.1,21.8 14.4,22.3 14.6,22.7 C14,22.8 13.1,22.9 12.1,22.9 C12.6,22.3 13.1,21.7 13.7,21.2 L13.7,21.2 Z M7.2,21.9 C4.5,20.5 2.9,17.8 2.2,16.4 C3.7,16.1 6.9,15.8 9.6,17.2 C10.9,17.9 12,18.9 12.8,19.9 C11.8,20.7 10.9,21.6 10.3,22.8 C9.3,22.7 8.2,22.4 7.2,21.9 L7.2,21.9 Z M39,49 L39,83.9 C39,85.8 37.4,87.4 35.5,87.4 L31.2,87.4 L31.2,63.7 C31.2,60.9 28.9,58.6 26.1,58.6 L20.2,58.6 C17.4,58.6 15.1,60.9 15.1,63.7 L15.1,87.4 L10.9,87.4 C9,87.4 7.4,85.8 7.4,83.9 L7.4,49 C7.4,41.6 10.6,38.2 12,37 C13.5,40.4 15.8,44.4 18.9,46.9 C19.4,51.4 22.3,54.3 22.5,54.4 C22.7,54.5 22.8,54.6 23,54.6 C23.2,54.6 23.4,54.5 23.5,54.4 C23.6,54.3 26.7,51.4 27.3,46.9 C30.4,44.4 32.7,40.4 34.1,37 C35.9,38.3 39,41.8 39,49 L39,49 Z M21,48.2 C21.8,48.6 22.6,48.8 23.4,48.8 C24.3,48.8 25.1,48.6 25.8,48.3 C25.2,50.4 24,52 23.3,52.8 C22.6,52 21.5,50.4 21,48.2 L21,48.2 Z M35.1,30.4 C35.1,30.5 32.3,41.6 26.2,46.1 C26.1,46.2 25.3,46.9 24,47.2 L24,44.8 C24.6,44.7 25.2,44.4 25.7,43.9 C26,43.6 26,43.1 25.7,42.8 C25.4,42.5 24.9,42.5 24.6,42.8 C23.9,43.5 22.6,43.5 21.9,42.8 C21.6,42.5 21.1,42.5 20.8,42.8 C20.5,43.1 20.5,43.6 20.8,43.9 C21.2,44.3 21.8,44.6 22.4,44.8 L22.4,47.2 C21.8,47.1 21.2,46.8 20.6,46.3 L20.4,46 L20.4,46 C14.3,41.6 11.5,30.4 11.5,30.3 C10.9,27.8 10.9,26 11.4,24.5 L12.1,24.5 C14.2,24.5 15.8,24.1 15.9,24 C16.1,23.9 16.3,23.8 16.4,23.6 C16.5,23.4 16.5,23.2 16.4,23 C16.4,22.9 15.9,21.7 15,20.3 C15.5,20 15.9,19.7 16.4,19.4 C16.6,19.3 16.8,19.1 16.9,18.9 C17,18.6 16.9,18.3 16.6,18.1 L15.5,17.2 C11.7,14 10.6,8.7 12.4,4.4 C12.4,6.6 13,8.7 14.1,10.7 C15.8,13.7 18.6,16 21.8,16.9 L23,17.2 L23.4,17.2 L25,16.8 C30.6,15.2 34.3,9.9 34.3,4.4 C35,6.1 35.3,7.9 35.2,9.8 C34.9,12.7 33.6,15.4 31.3,17.3 L30,18.3 C29.8,18.5 29.7,18.7 29.7,19 C29.7,19.3 29.9,19.5 30.1,19.6 C30.6,19.9 31.1,20.2 31.6,20.5 C30.7,21.9 30.2,23.1 30.2,23.2 C30.1,23.4 30.1,23.6 30.2,23.8 C30.3,24 30.5,24.1 30.7,24.2 C30.8,24.2 32.4,24.7 34.5,24.7 L35.2,24.7 C35.7,26 35.8,27.9 35.1,30.4 L35.1,30.4 Z M39.4,21.9 C38.4,22.4 37.3,22.7 36.2,22.8 C35.6,21.6 34.7,20.7 33.8,19.9 C34.6,18.9 35.7,17.9 37,17.2 C39.7,15.8 42.9,16.1 44.4,16.4 C43.7,17.8 42.1,20.5 39.4,21.9 L39.4,21.9 Z" id="Shape"></path>
            </g>
        </g>
    </g>
</svg>
