<svg viewBox="0 0 47 90" xmlns="http://www.w3.org/2000/svg"><title>goat</title><g fill="#FFF" fill-rule="evenodd"><path d="M29.2 29c-.7 0-1.3.6-1.3 1.3 0 .7.6 1.3 1.3 1.3.7 0 1.3-.6 1.3-1.3.1-.7-.5-1.3-1.3-1.3zM17.3 29c-.7 0-1.3.6-1.3 1.3 0 .7.6 1.3 1.3 1.3.7 0 1.3-.6 1.3-1.3.1-.7-.5-1.3-1.3-1.3z"/><path d="M46.2 15.5c-.1-.2-.3-.3-.5-.4-.2-.1-5.2-1.4-9.4.8-1.6.8-2.9 2-3.8 3.2-.2-.1-.4-.3-.6-.4l.4-.3c2.6-2.2 4.2-5.2 4.5-8.6.3-3.4-.7-6.6-2.9-9.2-.2-.2-.4-.3-.7-.3h-.1c-.2 0-.4.2-.6.3-.1.2-.2.4-.1.7 1.7 5.8-1.8 12.2-7.7 13.9l-1.3.4-1-.2c-2.8-.8-5.3-2.8-6.7-5.5-1.5-2.7-1.9-5.7-1-8.5.1-.2 0-.5-.1-.7-.1-.2-.3-.3-.6-.3h-.2c-.3 0-.5.1-.7.3C8.6 6 9.3 14 14.7 18.5l.2.2c-.2.1-.5.3-.7.5-.9-1.2-2.2-2.4-3.8-3.2-4.2-2.2-9.2-.8-9.4-.8-.2.1-.4.2-.5.4-.1.2-.1.4 0 .6.1.2 1.9 5 6.1 7.2 1.1.6 2.2.9 3.3 1.1-.5 1.5-.5 3.5.1 6.2 0 .2.6 2.2 1.6 4.9-1.5 1.1-5.5 4.8-5.6 13.5V84c0 2.8 2.3 5.1 5.1 5.1H16c.4 0 .8-.3.8-.8V63.7c0-1.9 1.6-3.5 3.5-3.5h5.9c1.9 0 3.5 1.6 3.5 3.5v24.4c0 .4.3.8.8.8h5c2.8 0 5.1-2.3 5.1-5.1V49c0-8.5-4-12.3-5.5-13.4 1-2.6 1.5-4.6 1.6-4.8.7-2.7.6-4.8.1-6.4 1.1-.2 2.2-.5 3.3-1.1 4.2-2.2 6-7 6.1-7.2.1-.2.1-.4 0-.6zm-13.3 5.7c.6.5 1.2 1.1 1.6 1.7-1 0-1.9-.1-2.5-.2.2-.4.5-.9.9-1.5zm-19.2 0c.4.6.7 1.1.9 1.5-.6.1-1.5.2-2.5.2.5-.6 1-1.2 1.6-1.7zm-6.5.7c-2.7-1.4-4.3-4.1-5-5.5 1.5-.3 4.7-.6 7.4.8 1.3.7 2.4 1.7 3.2 2.7-1 .8-1.9 1.7-2.5 2.9-1-.1-2.1-.4-3.1-.9zM39 49v34.9c0 1.9-1.6 3.5-3.5 3.5h-4.3V63.7c0-2.8-2.3-5.1-5.1-5.1h-5.9c-2.8 0-5.1 2.3-5.1 5.1v23.7h-4.2c-1.9 0-3.5-1.6-3.5-3.5V49c0-7.4 3.2-10.8 4.6-12 1.5 3.4 3.8 7.4 6.9 9.9.5 4.5 3.4 7.4 3.6 7.5.2.1.3.2.5.2s.4-.1.5-.2c.1-.1 3.2-3 3.8-7.5 3.1-2.5 5.4-6.5 6.8-9.9 1.8 1.3 4.9 4.8 4.9 12zm-18-.8c.8.4 1.6.6 2.4.6.9 0 1.7-.2 2.4-.5-.6 2.1-1.8 3.7-2.5 4.5-.7-.8-1.8-2.4-2.3-4.6zm14.1-17.8c0 .1-2.8 11.2-8.9 15.7-.1.1-.9.8-2.2 1.1v-2.4c.6-.1 1.2-.4 1.7-.9.3-.3.3-.8 0-1.1-.3-.3-.8-.3-1.1 0-.7.7-2 .7-2.7 0-.3-.3-.8-.3-1.1 0-.3.3-.3.8 0 1.1.4.4 1 .7 1.6.9v2.4c-.6-.1-1.2-.4-1.8-.9l-.2-.3c-6.1-4.4-8.9-15.6-8.9-15.7-.6-2.5-.6-4.3-.1-5.8h.7c2.1 0 3.7-.4 3.8-.5.2-.1.4-.2.5-.4.1-.2.1-.4 0-.6 0-.1-.5-1.3-1.4-2.7.5-.3.9-.6 1.4-.9.2-.1.4-.3.5-.5.1-.3 0-.6-.3-.8l-1.1-.9c-3.8-3.2-4.9-8.5-3.1-12.8 0 2.2.6 4.3 1.7 6.3 1.7 3 4.5 5.3 7.7 6.2l1.2.3h.4l1.6-.4c5.6-1.6 9.3-6.9 9.3-12.4.7 1.7 1 3.5.9 5.4-.3 2.9-1.6 5.6-3.9 7.5l-1.3 1c-.2.2-.3.4-.3.7 0 .3.2.5.4.6l1.5.9c-.9 1.4-1.4 2.6-1.4 2.7-.1.2-.1.4 0 .6.1.2.3.3.5.4.1 0 1.7.5 3.8.5h.7c.5 1.3.6 3.2-.1 5.7zm4.3-8.5c-1 .5-2.1.8-3.2.9-.6-1.2-1.5-2.1-2.4-2.9.8-1 1.9-2 3.2-2.7 2.7-1.4 5.9-1.1 7.4-.8-.7 1.4-2.3 4.1-5 5.5z"/></g></svg>