<?xml version="1.0" encoding="UTF-8" standalone="no"?>
<svg viewBox="0 0 85 97" version="1.1" xmlns="http://www.w3.org/2000/svg" xmlns:xlink="http://www.w3.org/1999/xlink">
    <!-- Generator: Sketch 3.6.1 (26313) - http://www.bohemiancoding.com/sketch -->
    <title>shoes</title>
    <desc>Created with Sketch.</desc>
    <defs></defs>
    <g id="Page-1" stroke="none" stroke-width="1" fill="none" fill-rule="evenodd">
        <g id="shoes" fill="#FFFFFF">
            <g id="Group">
                <path d="M81.352,43.615 C80.578,40.429 79.91,37.678 79.737,35.816 L77.751,14.326 C77.75,6.293 71.749,0 64.089,0 L61.977,0 C54.4,0 48,6.929 48,15.13 L48.003,35.954 C48.013,36.09 48.985,49.682 45.845,59.343 C42.159,70.679 45.761,81.484 50.361,87.817 C54.197,93.098 59.172,96.128 64.009,96.128 C75.222,96.128 82.899,82.279 84.429,69.249 C85.455,60.511 83.083,50.746 81.352,43.615 L81.352,43.615 Z M82.442,69.015 C82.304,70.188 82.114,71.368 81.877,72.541 C78.327,71.123 73,68.079 73,65.523 L73,64 L74,64 C74.553,64 75,63.553 75,63 C75,62.447 74.553,62 74,62 L73,62 L73,59 L74,59 C74.553,59 75,58.553 75,58 C75,57.447 74.553,57 74,57 L73,57 L73,54 L74,54 C74.553,54 75,53.553 75,53 C75,52.447 74.553,52 74,52 L73,52 L73,49 L74,49 C74.553,49 75,48.552 75,48 C75,47.448 74.553,47 74,47 L73,47 L73,44 L74,44 C74.553,44 75,43.552 75,43 C75,42.448 74.553,42 74,42 L73,42 L73,39 L74,39 C74.553,39 75,38.552 75,38 C75,37.448 74.553,37 74,37 L73,37 L73,34.989 L77.34,31.613 L77.744,36.002 C77.932,38.009 78.615,40.827 79.408,44.088 C81.104,51.07 83.427,60.635 82.442,69.015 L82.442,69.015 Z M80.829,76.664 C80.824,76.662 80.821,76.657 80.816,76.655 L72.573,73.082 C72.448,73.028 72.312,73 72.176,73 L54.07,73 C53.924,73 53.778,73.032 53.645,73.095 L47.201,76.117 C47.007,75.318 46.838,74.503 46.705,73.668 C48.223,73.065 56.331,69.679 57.143,65.726 C57.199,65.455 57.243,64.848 57.276,64 L71,64 L71,65.523 C71,70.343 80.314,74.085 81.428,74.515 C81.247,75.237 81.047,75.954 80.829,76.664 L80.829,76.664 Z M57.164,34.484 C57.159,34.169 57.031,33.874 56.777,33.69 L55,32.386 L55,32.38 C55,31.096 53.826,28.075 54.479,26.933 C54.804,26.364 55.628,26.08 56.003,26 L70.288,26 L70.299,26 L71.53,26 C71.536,26 72.224,26.072 72.687,26.768 C73.415,27.865 73.28,29.997 72.305,32.773 C72.276,32.856 72.277,32.939 72.27,33.022 L71.384,33.711 C71.143,33.9 71,34.191 71,34.5 L71,37 L57.203,37 C57.185,35.792 57.171,34.902 57.164,34.484 L57.164,34.484 Z M69.445,24 L56.541,24 C56.35,22.459 56.044,18.991 55.808,15.938 C55.808,11.672 59.537,7.327 63.197,7.327 C66.866,7.327 70.335,11.31 70.339,15.432 C70.092,18.112 69.681,22.26 69.445,24 L69.445,24 Z M71,39 L71,42 L57.27,42 C57.257,40.922 57.244,39.913 57.231,39 L71,39 L71,39 Z M71,44 L71,47 L57.323,47 C57.313,45.976 57.303,44.97 57.293,44 L71,44 L71,44 Z M71,49 L71,52 L57.36,52 C57.355,51.005 57.348,50 57.34,49 L71,49 L71,49 Z M71,54 L71,57 L57.371,57 C57.373,56.036 57.372,55.03 57.369,54 L71,54 L71,54 Z M71,59 L71,62 L57.331,62 C57.347,61.108 57.357,60.099 57.364,59 L71,59 L71,59 Z M61.977,2 L64.089,2 C70.628,2 75.75,7.414 75.754,14.418 L77.121,29.248 L74.892,30.983 C75.369,28.703 75.19,26.919 74.355,25.661 C73.35,24.147 71.824,24.012 71.592,24 L71.459,24 C71.774,21.589 72.226,16.742 72.334,15.523 C72.334,10.187 67.979,5.326 63.196,5.326 C58.458,5.326 53.807,10.582 53.81,16.014 C53.898,17.162 54.291,22.2 54.578,24.373 C53.932,24.652 53.179,25.129 52.716,25.939 C52.014,27.167 52.136,29.037 52.415,30.556 L50.144,28.915 C50.1,28.884 50.048,28.875 50,28.851 L50,15.13 C50,8.136 55.597,2 61.977,2 L61.977,2 Z M47.747,59.962 C51.008,49.929 50.04,36.377 50,35.879 L50,31.279 L55.172,35.016 C55.183,35.66 55.193,36.323 55.202,36.999 L54,36.999 C53.447,36.999 53,37.447 53,37.999 C53,38.551 53.447,38.999 54,38.999 L55.23,38.999 C55.244,39.982 55.257,40.984 55.269,41.999 L54,41.999 C53.447,41.999 53,42.447 53,42.999 C53,43.551 53.447,43.999 54,43.999 L55.293,43.999 C55.304,44.999 55.314,46.002 55.323,46.999 L54,46.999 C53.447,46.999 53,47.447 53,47.999 C53,48.551 53.447,48.999 54,48.999 L55.34,48.999 C55.348,50.017 55.355,51.02 55.36,51.999 L54,51.999 C53.447,51.999 53,52.446 53,52.999 C53,53.552 53.447,53.999 54,53.999 L55.368,53.999 C55.372,55.043 55.373,56.048 55.373,56.999 L54,56.999 C53.447,56.999 53,57.446 53,57.999 C53,58.552 53.447,58.999 54,58.999 L55.367,58.999 C55.361,60.12 55.351,61.126 55.337,61.999 L54,61.999 C53.447,61.999 53,62.446 53,62.999 C53,63.552 53.447,63.999 54,63.999 L55.286,63.999 C55.259,64.665 55.225,65.122 55.184,65.321 C54.739,67.485 49.832,70.207 46.444,71.614 C46.113,67.936 46.438,63.984 47.747,59.962 L47.747,59.962 Z M64.009,94.127 C59.819,94.127 55.434,91.398 51.979,86.642 C50.3,84.33 48.77,81.378 47.723,78.015 C47.824,78.001 47.923,77.988 48.02,77.943 L54.293,75 L71.969,75 L80.022,78.491 C80.083,78.517 80.147,78.516 80.21,78.53 C77.139,87.099 71.42,94.127 64.009,94.127 L64.009,94.127 Z" id="Shape"></path>
                <path d="M37,36.007 L37,15.258 C37,6.987 30.607,0 23.041,0 L20.929,0 C13.268,0 7.268,6.321 7.272,14.298 L5.282,35.943 C5.109,37.806 4.44,40.558 3.666,43.744 C1.934,50.874 -0.439,60.639 0.587,69.374 C2.117,82.405 9.793,96.255 21.004,96.255 C25.841,96.255 30.815,93.227 34.65,87.946 C39.25,81.613 42.851,70.807 39.165,59.47 C36.026,49.817 36.987,36.217 37,36.007 L37,36.007 Z M37.26,60.09 C38.568,64.111 38.895,68.062 38.564,71.74 C35.176,70.334 30.277,67.614 29.832,65.448 C29.789,65.237 29.754,64.731 29.727,64 L31,64 C31.552,64 32,63.553 32,63 C32,62.447 31.552,62 31,62 L29.678,62 C29.664,61.124 29.655,60.116 29.65,59 L31,59 C31.552,59 32,58.553 32,58 C32,57.447 31.552,57 31,57 L29.645,57 C29.645,56.047 29.646,55.044 29.649,54 L31,54 C31.552,54 32,53.553 32,53 C32,52.447 31.552,52 31,52 L29.659,52 C29.664,51.02 29.671,50.017 29.679,49 L31,49 C31.552,49 32,48.552 32,48 C32,47.448 31.552,47 31,47 L29.696,47 C29.705,46.002 29.716,45 29.726,44 L31,44 C31.552,44 32,43.552 32,43 C32,42.448 31.552,42 31,42 L29.75,42 C29.762,40.985 29.775,39.983 29.789,39 L31,39 C31.552,39 32,38.552 32,38 C32,37.448 31.552,37 31,37 L29.817,37 C29.826,36.369 29.834,35.748 29.844,35.145 L35,31.418 L35,35.933 C35,36.505 34,50.057 37.26,60.09 L37.26,60.09 Z M37.83,76.156 L31.376,73.096 C31.242,73.033 31.095,73 30.947,73 L12.842,73 C12.703,73 12.566,73.029 12.438,73.085 L4.195,76.722 C4.186,76.726 4.18,76.735 4.171,76.739 C3.96,76.047 3.764,75.346 3.588,74.641 C4.718,74.203 14,70.465 14,65.65 L14,64 L27.736,64 C27.77,64.919 27.816,65.567 27.874,65.852 C28.686,69.799 36.768,73.183 38.305,73.793 C38.177,74.598 38.015,75.385 37.83,76.156 L37.83,76.156 Z M13.614,33.838 L12.758,33.171 C12.758,33.06 12.75,32.947 12.711,32.836 C11.747,30.089 11.605,27.956 12.311,26.83 C12.771,26.096 13.475,26.001 13.428,26 L14.729,26 L28.993,26 C29.389,26.102 30.201,26.421 30.531,26.997 C31.126,28.037 31.001,30.849 30.001,32.513 L30.001,32.515 L28.234,33.817 C27.978,34.002 27.842,34.296 27.837,34.611 C27.831,35.014 27.835,35.858 27.818,37 L14,37 L14,34.627 C14,34.319 13.858,34.028 13.614,33.838 L13.614,33.838 Z M14.684,15.587 C14.684,11.39 18.153,7.422 21.822,7.422 C25.482,7.422 29.211,11.744 29.214,15.908 C28.975,19.003 28.67,22.463 28.478,23.999 L15.572,23.999 C15.336,22.27 14.926,18.169 14.684,15.587 L14.684,15.587 Z M27.789,39 C27.776,39.91 27.763,40.919 27.75,42 L14,42 L14,39 L27.789,39 L27.789,39 Z M27.727,44 C27.716,44.969 27.706,45.976 27.696,47 L14,47 L14,44 L27.727,44 L27.727,44 Z M27.678,49 C27.67,49.999 27.663,51.004 27.658,52 L14,52 L14,49 L27.678,49 L27.678,49 Z M27.649,54 C27.646,55.028 27.644,56.036 27.646,57 L14,57 L14,54 L27.649,54 L27.649,54 Z M27.653,59 C27.659,60.096 27.67,61.104 27.685,62 L14,62 L14,59 L27.653,59 L27.653,59 Z M20.929,2 L23.041,2 C29.412,2 35,8.195 35,15.258 L35.002,28.986 C34.96,29.008 34.913,29.016 34.874,29.045 L32.597,30.691 C32.881,29.149 33.01,27.242 32.302,26.005 C31.838,25.193 31.079,24.702 30.436,24.407 C30.722,22.256 31.12,17.199 31.21,15.988 C31.21,10.657 26.56,5.425 21.821,5.425 C17.039,5.425 12.683,10.268 12.688,15.68 C12.793,16.814 13.243,22 13.559,24 L13.351,24 C13.181,24 11.658,24.171 10.658,25.701 C9.816,26.99 9.649,28.816 10.15,31.14 L7.892,29.382 L9.268,14.39 C9.268,7.442 14.39,2 20.929,2 L20.929,2 Z M5.609,44.216 C6.401,40.954 7.086,38.136 7.273,36.128 L7.675,31.749 L12,35.116 L12,37 L11,37 C10.448,37 10,37.448 10,38 C10,38.552 10.448,39 11,39 L12,39 L12,42 L11,42 C10.448,42 10,42.448 10,43 C10,43.552 10.448,44 11,44 L12,44 L12,47 L11,47 C10.448,47 10,47.448 10,48 C10,48.552 10.448,49 11,49 L12,49 L12,52 L11,52 C10.448,52 10,52.447 10,53 C10,53.553 10.448,54 11,54 L12,54 L12,57 L11,57 C10.448,57 10,57.447 10,58 C10,58.553 10.448,59 11,59 L12,59 L12,62 L11,62 C10.448,62 10,62.447 10,63 C10,63.553 10.448,64 11,64 L12,64 L12,65.65 C12,68.2 6.685,71.244 3.138,72.666 C2.9,71.492 2.711,70.312 2.573,69.141 C1.588,60.762 3.912,51.198 5.609,44.216 L5.609,44.216 Z M33.031,86.771 C29.576,91.527 25.193,94.254 21.004,94.254 C13.576,94.254 7.849,87.192 4.785,78.597 C4.858,78.583 4.931,78.582 5.002,78.551 L13.053,75 L30.722,75 L36.994,77.973 C37.097,78.022 37.205,78.04 37.313,78.052 C36.266,81.454 34.725,84.439 33.031,86.771 L33.031,86.771 Z" id="Shape"></path>
            </g>
        </g>
    </g>
</svg>
