<svg viewBox="0 0 85 97" xmlns="http://www.w3.org/2000/svg"><title>shoes</title><g fill="#FFF" fill-rule="evenodd"><path d="M81.352 43.615c-.774-3.186-1.442-5.937-1.615-7.799l-1.986-21.49C77.75 6.293 71.749 0 64.089 0h-2.112C54.4 0 48 6.929 48 15.13l.003 20.824c.01.136.982 13.728-2.158 23.389-3.686 11.336-.084 22.141 4.516 28.474 3.836 5.281 8.811 8.311 13.648 8.311 11.213 0 18.89-13.849 20.42-26.879 1.026-8.738-1.346-18.503-3.077-25.634zm1.09 25.4a43.501 43.501 0 0 1-.565 3.526C78.327 71.123 73 68.079 73 65.523V64h1a1 1 0 1 0 0-2h-1v-3h1a1 1 0 1 0 0-2h-1v-3h1a1 1 0 1 0 0-2h-1v-3h1a1 1 0 1 0 0-2h-1v-3h1a1 1 0 1 0 0-2h-1v-3h1a1 1 0 1 0 0-2h-1v-2.011l4.34-3.376.404 4.389c.188 2.007.871 4.825 1.664 8.086 1.696 6.982 4.019 16.547 3.034 24.927zm-1.613 7.649c-.005-.002-.008-.007-.013-.009l-8.243-3.573a1.004 1.004 0 0 0-.397-.082H54.07a.995.995 0 0 0-.425.095l-6.444 3.022a31.105 31.105 0 0 1-.496-2.449c1.518-.603 9.626-3.989 10.438-7.942.056-.271.1-.878.133-1.726H71v1.523c0 4.82 9.314 8.562 10.428 8.992a42.695 42.695 0 0 1-.599 2.149zm-23.665-42.18c-.005-.315-.133-.61-.387-.794L55 32.386v-.006c0-1.284-1.174-4.305-.521-5.447.325-.569 1.149-.853 1.524-.933H71.53c.006 0 .694.072 1.157.768.728 1.097.593 3.229-.382 6.005-.029.083-.028.166-.035.249l-.886.689c-.241.189-.384.48-.384.789V37H57.203l-.039-2.516zM69.445 24H56.541c-.191-1.541-.497-5.009-.733-8.062 0-4.266 3.729-8.611 7.389-8.611 3.669 0 7.138 3.983 7.142 8.105-.247 2.68-.658 6.828-.894 8.568zM71 39v3H57.27c-.013-1.078-.026-2.087-.039-3H71zm0 5v3H57.323l-.03-3H71zm0 5v3H57.36c-.005-.995-.012-2-.02-3H71zm0 5v3H57.371c.002-.964.001-1.97-.002-3H71zm0 5v3H57.331c.016-.892.026-1.901.033-3H71zM61.977 2h2.112c6.539 0 11.661 5.414 11.665 12.418l1.367 14.83-2.229 1.735c.477-2.28.298-4.064-.537-5.322-1.005-1.514-2.531-1.649-2.763-1.661h-.133c.315-2.411.767-7.258.875-8.477 0-5.336-4.355-10.197-9.138-10.197-4.738 0-9.389 5.256-9.386 10.688.088 1.148.481 6.186.768 8.359-.646.279-1.399.756-1.862 1.566-.702 1.228-.58 3.098-.301 4.617l-2.271-1.641c-.044-.031-.096-.04-.144-.064V15.13C50 8.136 55.597 2 61.977 2zm-14.23 57.962C51.008 49.929 50.04 36.377 50 35.879v-4.6l5.172 3.737c.011.644.021 1.307.03 1.983H54a1 1 0 1 0 0 2h1.23c.014.983.027 1.985.039 3H54a1 1 0 1 0 0 2h1.293l.03 3H54a1 1 0 1 0 0 2h1.34c.008 1.018.015 2.021.02 3H54a1 1 0 1 0 0 2h1.368c.004 1.044.005 2.049.005 3H54a1 1 0 1 0 0 2h1.367a285.205 285.205 0 0 1-.03 3H54a1 1 0 1 0 0 2h1.286c-.027.666-.061 1.123-.102 1.322-.445 2.164-5.352 4.886-8.74 6.293a29.057 29.057 0 0 1 1.303-11.652zm16.262 34.165c-4.19 0-8.575-2.729-12.03-7.485-1.679-2.312-3.209-5.264-4.256-8.627.101-.014.2-.027.297-.072L54.293 75h17.676l8.053 3.491c.061.026.125.025.188.039-3.071 8.569-8.79 15.597-16.201 15.597zM37 36.007V15.258C37 6.987 30.607 0 23.041 0h-2.112C13.268 0 7.268 6.321 7.272 14.298l-1.99 21.645c-.173 1.863-.842 4.615-1.616 7.801-1.732 7.13-4.105 16.895-3.079 25.63 1.53 13.031 9.206 26.881 20.417 26.881 4.837 0 9.811-3.028 13.646-8.309 4.6-6.333 8.201-17.139 4.515-28.476-3.139-9.653-2.178-23.253-2.165-23.463zm.26 24.083a29.064 29.064 0 0 1 1.304 11.65c-3.388-1.406-8.287-4.126-8.732-6.292-.043-.211-.078-.717-.105-1.448H31a1 1 0 1 0 0-2h-1.322a265.98 265.98 0 0 1-.028-3H31a1 1 0 1 0 0-2h-1.355c0-.953.001-1.956.004-3H31a1 1 0 1 0 0-2h-1.341c.005-.98.012-1.983.02-3H31a1 1 0 0 0 0-2h-1.304l.03-3H31a1 1 0 0 0 0-2h-1.25c.012-1.015.025-2.017.039-3H31a1 1 0 0 0 0-2h-1.183c.009-.631.017-1.252.027-1.855L35 31.418v4.515c0 .572-1 14.124 2.26 24.157zm.57 16.066l-6.454-3.06a1.01 1.01 0 0 0-.429-.096H12.842c-.139 0-.276.029-.404.085l-8.243 3.637c-.009.004-.015.013-.024.017a42.49 42.49 0 0 1-.583-2.098C4.718 74.203 14 70.465 14 65.65V64h13.736c.034.919.08 1.567.138 1.852.812 3.947 8.894 7.331 10.431 7.941-.128.805-.29 1.592-.475 2.363zM13.614 33.838l-.856-.667a.995.995 0 0 0-.047-.335c-.964-2.747-1.106-4.88-.4-6.006.46-.734 1.164-.829 1.117-.83h15.565c.396.102 1.208.421 1.538.997.595 1.04.47 3.852-.53 5.516v.002l-1.767 1.302a.982.982 0 0 0-.397.794c-.006.403-.002 1.247-.019 2.389H14v-2.373a1 1 0 0 0-.386-.789zm1.07-18.251c0-4.197 3.469-8.165 7.138-8.165 3.66 0 7.389 4.322 7.392 8.486-.239 3.095-.544 6.555-.736 8.091H15.572c-.236-1.729-.646-5.83-.888-8.412zM27.789 39c-.013.91-.026 1.919-.039 3H14v-3h13.789zm-.062 5l-.031 3H14v-3h13.727zm-.049 5c-.008.999-.015 2.004-.02 3H14v-3h13.678zm-.029 5c-.003 1.028-.005 2.036-.003 3H14v-3h13.649zm.004 5c.006 1.096.017 2.104.032 3H14v-3h13.653zM20.929 2h2.112C29.412 2 35 8.195 35 15.258l.002 13.728c-.042.022-.089.03-.128.059l-2.277 1.646c.284-1.542.413-3.449-.295-4.686-.464-.812-1.223-1.303-1.866-1.598.286-2.151.684-7.208.774-8.419 0-5.331-4.65-10.563-9.389-10.563-4.782 0-9.138 4.843-9.133 10.255.105 1.134.555 6.32.871 8.32h-.208c-.17 0-1.693.171-2.693 1.701-.842 1.289-1.009 3.115-.508 5.439l-2.258-1.758L9.268 14.39C9.268 7.442 14.39 2 20.929 2zM5.609 44.216c.792-3.262 1.477-6.08 1.664-8.088l.402-4.379L12 35.116V37h-1a1 1 0 0 0 0 2h1v3h-1a1 1 0 0 0 0 2h1v3h-1a1 1 0 0 0 0 2h1v3h-1a1 1 0 1 0 0 2h1v3h-1a1 1 0 1 0 0 2h1v3h-1a1 1 0 1 0 0 2h1v1.65c0 2.55-5.315 5.594-8.862 7.016a43.25 43.25 0 0 1-.565-3.525c-.985-8.379 1.339-17.943 3.036-24.925zm27.422 42.555c-3.455 4.756-7.838 7.483-12.027 7.483-7.428 0-13.155-7.062-16.219-15.657.073-.014.146-.015.217-.046L13.053 75h17.669l6.272 2.973a.977.977 0 0 0 .319.079c-1.047 3.402-2.588 6.387-4.282 8.719z"/></g></svg>