<svg width="110" height="71" viewBox="0 0 110 71" xmlns="http://www.w3.org/2000/svg" xmlns:xlink="http://www.w3.org/1999/xlink"><title>Cloudy</title><defs><linearGradient x1="25.938%" y1="20.02%" x2="90.765%" y2="100%" id="b"><stop stop-color="#D0D0D0" offset="0%"/><stop stop-color="#A3A3A3" offset="100%"/></linearGradient><linearGradient x1="14.034%" y1="65.513%" x2="58.048%" y2="32.528%" id="d"><stop stop-color="#F2F2F2" offset="0%"/><stop stop-color="#E0E0E0" offset="100%"/></linearGradient><path d="M54.28 48.768h38.817a18.164 18.164 0 0 0 .014 0h.326c.059 0 .118-.002.176-.007 8.595-.246 15.48-6.699 15.48-14.623 0-8.08-7.158-14.63-15.989-14.63-.775 0-1.538.05-2.284.147v-.148C90.82 8.734 81.616 0 70.263 0 60.526 0 52.37 6.423 50.245 15.047 42.091 16.76 36 23.565 36 31.699c0 9.043 7.528 16.443 17.049 17.031.137.025.275.038.411.038h.806a20.335 20.335 0 0 0 .015 0z" id="a"/><mask id="c" x="0" y="0" width="73.094" height="48.768" fill="#fff"><use xlink:href="#a"/></mask></defs><g fill="none" fill-rule="evenodd"><path d="M-10-25h128v128H-10z"/><g><path d="M24.807 70.186h51.821c.29.01.58.016.872.016 11.985 0 21.7-8.906 21.7-19.872s-9.715-19.856-21.7-19.856c-1.053 0-2.088.07-3.1.202v-.202C74.4 15.853 61.909 4 46.5 4c-13.214 0-24.282 8.717-27.167 20.42C8.267 26.747 0 35.983 0 47.022c0 12.641 10.916 22.917 24.314 23.16.046.004.093.005.14.005h.34a25.49 25.49 0 0 0 .013 0z" fill="url(#b)"/><use stroke-opacity=".32" stroke="#979797" mask="url(#c)" stroke-width=".2" fill="url(#d)" xlink:href="#a"/></g></g></svg>