<svg width="24px" height="24px" viewBox="0 0 40.5 46.4" version="1.1" xmlns="http://www.w3.org/2000/svg">
    <defs>
        <mask id="mask1">
            <g>
                {/*The dash in the middle of helix*/}
                <path fill="white"
                      d="M24.2,24.7h-7.4c-0.9,0-1.6-0.7-1.6-1.6s0.7-1.6,1.6-1.6h7.4c0.9,0,1.6,0.7,1.6,1.6S25.1,24.7,24.2,24.7z"></path>
            </g>
            <g>
                {/*Lower or right strand of DNA*/}
                <path fill="white"
                      d="M31.2,23.6c0-0.9,0.7-5.3-6.9-9.4c-0.5,0.7-1.3,1.5-2.3,2.3c0.1,0.1,1.4,0.8,1.5,0.9 c4.7,2.3,4.6,5.7,4.6,6l0,0.1l0,0.2c0,0.3-0.2,2.8-4.5,5.3c-5.6,3.3-6.6,6.1-6.8,6.6l3.1,0.8c0,0,0,0,0,0.1c0,0,0.2-0.7,1.3-1.7l5.1,2.9c0.2,0.1,0.5,0.2,0.8,0.2c0.6,0,1.1-0.3,1.4-0.8c0.4-0.8,0.2-1.7-0.6-2.2l-4-2.3c0.4-0.3,0.9-0.6,1.4-0.9C30.9,28.3,31.2,24.4,31.2,23.6z"/>
                {/*Upper or left strand of DNA*/}
                <path fill="white"
                      d="M9.8,22.9c0,0.9-0.7,5.3,6.9,9.4c0.5-0.7,1.3-1.5,2.3-2.3c-0.1-0.1-1.4-0.8-1.5-0.9c-4.7-2.3-4.6-5.7-4.6-6l0-0.1l0-0.2c0-0.3,0.2-2.8,4.5-5.3c5.6-3.3,6.6-6.1,6.8-6.6L21.2,10c0,0,0,0,0-0.1c0,0-0.2,0.7-1.3,1.7l-5.1-2.9c-0.2-0.1-0.5-0.2-0.8-0.2c-0.6,0-1.1,0.3-1.4,0.8c-0.4,0.8-0.2,1.7,0.6,2.2l4,2.3c-0.4,0.3-0.9,0.6-1.4,0.9C10.1,18.2,9.8,22,9.8,22.9z"/>
            </g>
        </mask>
    </defs>
    <g>
        <path id="path-1" fill="#4A4A4A" style="mask: url(#mask1)"
              d="M0.6,11.2c-0.3,0.2-0.6,0.6-0.6,1v22.1c0,0.4,0.3,0.8,0.6,1l19.1,11.1c0.3,0.2,0.8,0.2,1.1,0L40,35.2 c0.3-0.2,0.6-0.6,0.6-1V12.2c0-0.4-0.3-0.8-0.6-1L20.8,0.1C20.5,0,20,0,19.7,0.1L0.6,11.2z">
        </path>

    </g>
</svg>
