<?xml version="1.0" encoding="UTF-8" standalone="no"?>
<svg width="288px" height="24px" viewBox="0 0 288 24" version="1.1" xmlns="http://www.w3.org/2000/svg" xmlns:xlink="http://www.w3.org/1999/xlink">
    <!-- Generator: Sketch 3.8.3 (29802) - http://www.bohemiancoding.com/sketch -->
    <title>stars for dark background copy</title>
    <desc>Created with Sketch.</desc>
    <defs></defs>
    <g id="Page-1" stroke="none" stroke-width="1" fill="none" fill-rule="evenodd">
        <g id="stars-for-dark-background-copy">
            <g id="ic_star_border_black_24px-copy">
                <g id="Group">
                    <path d="M22,9.24 L14.81,8.62 L12,2 L9.19,8.63 L2,9.24 L7.46,13.97 L5.82,21 L12,17.27 L18.18,21 L16.55,13.97 L22,9.24 L22,9.24 Z M12,15.4 L8.24,17.67 L9.24,13.39 L5.92,10.51 L10.3,10.13 L12,6.1 L13.71,10.14 L18.09,10.52 L14.77,13.4 L15.77,17.68 L12,15.4 L12,15.4 Z" id="Shape" fill="#FFFFFF"></path>
                    <polygon id="Shape" points="0 0 24 0 24 24 0 24"></polygon>
                </g>
            </g>
            <g id="ic_star_black_24px" transform="translate(49.000000, -1.000000)">
                <g id="Group">
                    <polygon id="Shape" points="0 0 24 0 24 24 0 24"></polygon>
                    <polygon id="Shape" points="0 0 24 0 24 24 0 24"></polygon>
                </g>
            </g>
            <g id="ic_star_black_24px-copy" transform="translate(144.000000, 0.000000)">
                <g id="Group">
                    <polygon id="Shape" points="0 0 24 0 24 24 0 24"></polygon>
                    <polygon id="Shape" points="0 0 24 0 24 24 0 24"></polygon>
                    <g id="Lines" transform="translate(5.000000, 6.000000)" stroke="#FFFFFF" stroke-width="0.8" stroke-linecap="square">
                        <path d="M4,2 L2.5,0.5" id="Line"></path>
                        <path d="M10,2 L11.5,0.5" id="Line-Copy"></path>
                        <path d="M2.05096549,8.05370642 L0.474517255,9.47314679" id="Line-Copy-3"></path>
                        <path d="M13.4597202,9.03822412 L12,7.99999998" id="Line-Copy-2"></path>
                        <path d="M6.69120911,12.8487227 L6.7107558,11.7288934" id="Line-Copy-4"></path>
                    </g>
                    <polygon id="Shape" fill="#FFFFFF" points="12 15.689 16.326 18.3 15.178 13.379 19 10.068 13.967 9.641 12 5 10.033 9.641 5 10.068 8.822 13.379 7.674 18.3"></polygon>
                </g>
            </g>
            <g id="ic_star_black_24px-copy-4" transform="translate(24.000000, 0.000000)">
                <g id="Group">
                    <polygon id="Shape" points="0 0 24 0 24 24 0 24"></polygon>
                    <polygon id="Shape" points="0 0 24 0 24 24 0 24"></polygon>
                    <polygon id="Shape" fill="#FFFFFF" opacity="0.72" points="12 14.635 15.09 16.5 14.27 12.985 17 10.62 13.405 10.315 12 7 10.595 10.315 7 10.62 9.73 12.985 8.91 16.5"></polygon>
                </g>
            </g>
            <g id="ic_star_black_24px-copy-9" transform="translate(48.000000, 0.000000)">
                <g id="Group">
                    <polygon id="Shape" points="0 0 24 0 24 24 0 24"></polygon>
                    <polygon id="Shape" points="0 0 24 0 24 24 0 24"></polygon>
                    <polygon id="Shape" fill="#FFFFFF" opacity="0.82" points="12.5 15.3985 15.899 17.45 14.997 13.5835 18 10.982 14.0455 10.6465 12.5 7 10.9545 10.6465 7 10.982 10.003 13.5835 9.101 17.45"></polygon>
                </g>
            </g>
            <g id="ic_star_black_24px-copy-11" transform="translate(72.000000, 0.000000)">
                <g id="Group">
                    <polygon id="Shape" points="0 0 24 0 24 24 0 24"></polygon>
                    <polygon id="Shape" points="0 0 24 0 24 24 0 24"></polygon>
                    <polygon id="Shape" fill="#FFFFFF" opacity="0.85" points="12 15.162 15.708 17.4 14.724 13.182 18 10.344 13.686 9.978 12 6 10.314 9.978 6 10.344 9.276 13.182 8.292 17.4"></polygon>
                </g>
            </g>
            <g id="ic_star_black_24px-copy-10" transform="translate(96.000000, 0.000000)">
                <g id="Group">
                    <polygon id="Shape" points="0 0 24 0 24 24 0 24"></polygon>
                    <polygon id="Shape" points="0 0 24 0 24 24 0 24"></polygon>
                    <polygon id="Shape" fill="#FFFFFF" points="12.5 15.9255 16.517 18.35 15.451 13.7805 19 10.706 14.3265 10.3095 12.5 6 10.6735 10.3095 6 10.706 9.549 13.7805 8.483 18.35"></polygon>
                    <g id="Lines-Copy-2" transform="translate(8.000000, 9.000000)" stroke="#FFFFFF" stroke-width="0.5" stroke-linecap="square">
                        <path d="M3,2 L1.5,0.5" id="Line"></path>
                        <path d="M6,2 L7.5,0.5" id="Line-Copy"></path>
                        <path d="M2.05096549,4.05370642 L0.474517255,5.47314679" id="Line-Copy-3"></path>
                        <path d="M8.45972018,5.03822412 L7.00000001,3.99999998" id="Line-Copy-2"></path>
                        <path d="M4.69120911,7.84872275 L4.7107558,6.72889344" id="Line-Copy-4"></path>
                    </g>
                </g>
            </g>
            <g id="ic_star_black_24px-copy-6" transform="translate(120.000000, 0.000000)">
                <g id="Group">
                    <polygon id="Shape" points="0 0 24 0 24 24 0 24"></polygon>
                    <polygon id="Shape" points="0 0 24 0 24 24 0 24"></polygon>
                    <polygon id="Shape" fill="#FFFFFF" points="11.75 15.30725 15.9215 17.825 14.8145 13.07975 18.5 9.887 13.64675 9.47525 11.75 5 9.85325 9.47525 5 9.887 8.6855 13.07975 7.5785 17.825"></polygon>
                    <g id="Lines-Copy" transform="translate(5.000000, 6.000000)" stroke="#FFFFFF" stroke-width="0.5" stroke-linecap="square">
                        <path d="M4,2 L2.5,0.5" id="Line"></path>
                        <path d="M10,2 L11.5,0.5" id="Line-Copy"></path>
                        <path d="M2.05096549,8.05370642 L0.638990323,9.32505457" id="Line-Copy-3"></path>
                        <path d="M13.4597202,9.03822412 L12,7.99999998" id="Line-Copy-2"></path>
                        <path d="M6.69120911,12.8487227 L6.7107558,11.7288934" id="Line-Copy-4"></path>
                    </g>
                </g>
            </g>
            <g id="ic_star_black_24px-copy-3" transform="translate(168.000000, 0.000000)">
                <g id="Group">
                    <polygon id="Shape" points="0 0 24 0 24 24 0 24"></polygon>
                    <polygon id="Shape" points="0 0 24 0 24 24 0 24"></polygon>
                    <g id="Group-2" transform="translate(5.000000, 6.000000)" stroke="#FFFFFF" stroke-width="0.8" stroke-linecap="square">
                        <path d="M4,2 L2.5,0.5" id="Line"></path>
                        <path d="M10,2 L11.5,0.5" id="Line-Copy"></path>
                        <path d="M2.05096549,8.05370642 L0.474517255,9.47314679" id="Line-Copy-3"></path>
                        <path d="M13.4597202,9.03822412 L12,7.99999998" id="Line-Copy-2"></path>
                        <path d="M7.3961285,12.8487227 L7.4038715,11.7288934" id="Line-Copy-4"></path>
                    </g>
                    <polygon id="Shape" fill="#FFFFFF" points="12 16.743 17.562 20.1 16.086 13.773 21 9.516 14.529 8.967 12 3 9.471 8.967 3 9.516 7.914 13.773 6.438 20.1"></polygon>
                </g>
            </g>
            <g id="ic_star_black_24px-copy-2" transform="translate(192.000000, 0.000000)">
                <g id="Group">
                    <polygon id="Shape" points="0 0 24 0 24 24 0 24"></polygon>
                    <polygon id="Shape" fill="#FFFFFF" points="12 17.27 18.18 21 16.54 13.97 22 9.24 14.81 8.63 12 2 9.19 8.63 2 9.24 7.46 13.97 5.82 21"></polygon>
                    <polygon id="Shape" points="0 0 24 0 24 24 0 24"></polygon>
                    <g id="Group-2-Copy" transform="translate(5.000000, 6.000000)" stroke="#FFFFFF" stroke-linecap="square">
                        <path d="M4,2 L2.5,0.5" id="Line"></path>
                        <path d="M10,2 L11.5,0.5" id="Line-Copy"></path>
                        <path d="M2.05096549,8.05370642 L0.474517255,9.47314679" id="Line-Copy-3"></path>
                        <path d="M13.4597202,9.03822412 L12,7.99999998" id="Line-Copy-2"></path>
                        <path d="M6.49516062,12.8487227 L6.50483938,11.7288934" id="Line-Copy-4"></path>
                    </g>
                </g>
            </g>
            <g id="ic_star_black_24px-copy-5" transform="translate(216.000000, 0.000000)">
                <g id="Group">
                    <polygon id="Shape" points="0 0 24 0 24 24 0 24"></polygon>
                    <polygon id="Shape" fill="#FFFFFF" points="12 18.324 19.416 22.8 17.448 14.364 24 8.688 15.372 7.956 12 0 8.628 7.956 0 8.688 6.552 14.364 4.584 22.8"></polygon>
                    <polygon id="Shape" points="0 0 24 0 24 24 0 24"></polygon>
                </g>
            </g>
            <g id="ic_star_black_24px-copy-8" transform="translate(264.000000, 0.000000)">
                <g id="Group">
                    <polygon id="Shape" points="0 0 24 0 24 24 0 24"></polygon>
                    <polygon id="Shape" fill="#FFFFFF" points="12 17.27 18.18 21 16.54 13.97 22 9.24 14.81 8.63 12 2 9.19 8.63 2 9.24 7.46 13.97 5.82 21"></polygon>
                    <polygon id="Shape" points="0 0 24 0 24 24 0 24"></polygon>
                </g>
            </g>
            <g id="ic_star_black_24px-copy-7" transform="translate(240.000000, 0.000000)">
                <g id="Group">
                    <polygon id="Shape" points="0 0 24 0 24 24 0 24"></polygon>
                    <polygon id="Shape" fill="#FFFFFF" points="12 17.797 18.798 21.9 16.994 14.167 23 8.964 15.091 8.293 12 1 8.909 8.293 1 8.964 7.006 14.167 5.202 21.9"></polygon>
                    <polygon id="Shape" points="0 0 24 0 24 24 0 24"></polygon>
                </g>
            </g>
            <circle id="Oval-1" stroke="#FFFFFF" stroke-width="0.5" cx="156" cy="12" r="8"></circle>
            <circle id="Oval-1-Copy-2" stroke="#FFFFFF" stroke-width="0.3" cx="180" cy="12" r="10"></circle>
            <circle id="Oval-1-Copy-4" stroke="#FFFFFF" stroke-width="0.1" cx="204" cy="12" r="11"></circle>
            <circle id="Oval-1-Copy" stroke="#FFFFFF" stroke-width="0.8" cx="132" cy="12" r="7"></circle>
            <path d="M108.5,18 C111.537566,18 114,15.5375661 114,12.5 C114,9.46243388 111.537566,7 108.5,7 C105.462434,7 103,9.46243388 103,12.5 C103,15.5375661 105.462434,18 108.5,18 Z" id="Oval-1-Copy-3" stroke="#FFFFFF"></path>
        </g>
    </g>
</svg>