<?xml version="1.0" encoding="UTF-8" standalone="no"?>
<svg width="288px" height="24px" viewBox="0 0 288 24" version="1.1" xmlns="http://www.w3.org/2000/svg" xmlns:xlink="http://www.w3.org/1999/xlink">
    <!-- Generator: Sketch 3.6.1 (26313) - http://www.bohemiancoding.com/sketch -->
    <title>stars for dark background</title>
    <desc>Created with Sketch.</desc>
    <defs></defs>
    <g id="Page-1" stroke="none" stroke-width="1" fill="none" fill-rule="evenodd">
        <g id="stars-for-dark-background">
            <g id="ic_star_border_black_24px-copy">
                <g id="Group">
                    <path d="M22,9.24 L14.81,8.62 L12,2 L9.19,8.63 L2,9.24 L7.46,13.97 L5.82,21 L12,17.27 L18.18,21 L16.55,13.97 L22,9.24 L22,9.24 Z M12,15.4 L8.24,17.67 L9.24,13.39 L5.92,10.51 L10.3,10.13 L12,6.1 L13.71,10.14 L18.09,10.52 L14.77,13.4 L15.77,17.68 L12,15.4 L12,15.4 Z" id="Shape" fill="#FFFFFF"></path>
                    <path d="M0,0 L24,0 L24,24 L0,24 L0,0 Z" id="Shape"></path>
                </g>
            </g>
            <g id="ic_star_black_24px" transform="translate(49.000000, -1.000000)">
                <g id="Group">
                    <path d="M0,0 L24,0 L24,24 L0,24 L0,0 Z" id="Shape"></path>
                    <path d="M0,0 L24,0 L24,24 L0,24 L0,0 Z" id="Shape"></path>
                </g>
            </g>
            <g id="ic_star_black_24px-copy" transform="translate(144.000000, 0.000000)">
                <g id="Group">
                    <path d="M0,0 L24,0 L24,24 L0,24 L0,0 Z" id="Shape"></path>
                    <path d="M0,0 L24,0 L24,24 L0,24 L0,0 Z" id="Shape"></path>
                    <g id="Lines" transform="translate(5.000000, 6.000000)" stroke="#F5A623" stroke-width="0.8" stroke-linecap="square">
                        <path d="M4,2 L2.5,0.5" id="Line"></path>
                        <path d="M10,2 L11.5,0.5" id="Line-Copy"></path>
                        <path d="M2.05096549,8.05370642 L0.474517255,9.47314679" id="Line-Copy-3"></path>
                        <path d="M13.4597202,9.03822412 L12,7.99999998" id="Line-Copy-2"></path>
                        <path d="M6.69120911,12.8487227 L6.7107558,11.7288934" id="Line-Copy-4"></path>
                    </g>
                    <path d="M12,15.689 L16.326,18.3 L15.178,13.379 L19,10.068 L13.967,9.641 L12,5 L10.033,9.641 L5,10.068 L8.822,13.379 L7.674,18.3 L12,15.689 Z" id="Shape" fill="#F5A623"></path>
                </g>
            </g>
            <g id="ic_star_black_24px-copy-4" transform="translate(24.000000, 0.000000)">
                <g id="Group">
                    <path d="M0,0 L24,0 L24,24 L0,24 L0,0 Z" id="Shape"></path>
                    <path d="M0,0 L24,0 L24,24 L0,24 L0,0 Z" id="Shape"></path>
                    <path d="M12,14.635 L15.09,16.5 L14.27,12.985 L17,10.62 L13.405,10.315 L12,7 L10.595,10.315 L7,10.62 L9.73,12.985 L8.91,16.5 L12,14.635 Z" id="Shape" fill="#F5A623" opacity="0.72"></path>
                </g>
            </g>
            <g id="ic_star_black_24px-copy-9" transform="translate(48.000000, 0.000000)">
                <g id="Group">
                    <path d="M0,0 L24,0 L24,24 L0,24 L0,0 Z" id="Shape"></path>
                    <path d="M0,0 L24,0 L24,24 L0,24 L0,0 Z" id="Shape"></path>
                    <path d="M12.5,15.3985 L15.899,17.45 L14.997,13.5835 L18,10.982 L14.0455,10.6465 L12.5,7 L10.9545,10.6465 L7,10.982 L10.003,13.5835 L9.101,17.45 L12.5,15.3985 Z" id="Shape" fill="#F5A623" opacity="0.82"></path>
                </g>
            </g>
            <g id="ic_star_black_24px-copy-11" transform="translate(72.000000, 0.000000)">
                <g id="Group">
                    <path d="M0,0 L24,0 L24,24 L0,24 L0,0 Z" id="Shape"></path>
                    <path d="M0,0 L24,0 L24,24 L0,24 L0,0 Z" id="Shape"></path>
                    <path d="M12,15.162 L15.708,17.4 L14.724,13.182 L18,10.344 L13.686,9.978 L12,6 L10.314,9.978 L6,10.344 L9.276,13.182 L8.292,17.4 L12,15.162 Z" id="Shape" fill="#F5A623" opacity="0.85"></path>
                </g>
            </g>
            <g id="ic_star_black_24px-copy-10" transform="translate(96.000000, 0.000000)">
                <g id="Group">
                    <path d="M0,0 L24,0 L24,24 L0,24 L0,0 Z" id="Shape"></path>
                    <path d="M0,0 L24,0 L24,24 L0,24 L0,0 Z" id="Shape"></path>
                    <path d="M12.5,15.9255 L16.517,18.35 L15.451,13.7805 L19,10.706 L14.3265,10.3095 L12.5,6 L10.6735,10.3095 L6,10.706 L9.549,13.7805 L8.483,18.35 L12.5,15.9255 Z" id="Shape" fill="#F5A623"></path>
                    <g id="Lines-Copy-2" transform="translate(8.000000, 9.000000)" stroke="#F5A623" stroke-width="0.5" stroke-linecap="square">
                        <path d="M3,2 L1.5,0.5" id="Line"></path>
                        <path d="M6,2 L7.5,0.5" id="Line-Copy"></path>
                        <path d="M2.05096549,4.05370642 L0.474517255,5.47314679" id="Line-Copy-3"></path>
                        <path d="M8.45972018,5.03822412 L7.00000001,3.99999998" id="Line-Copy-2"></path>
                        <path d="M4.69120911,7.84872275 L4.7107558,6.72889344" id="Line-Copy-4"></path>
                    </g>
                </g>
            </g>
            <g id="ic_star_black_24px-copy-6" transform="translate(120.000000, 0.000000)">
                <g id="Group">
                    <path d="M0,0 L24,0 L24,24 L0,24 L0,0 Z" id="Shape"></path>
                    <path d="M0,0 L24,0 L24,24 L0,24 L0,0 Z" id="Shape"></path>
                    <path d="M11.75,15.30725 L15.9215,17.825 L14.8145,13.07975 L18.5,9.887 L13.64675,9.47525 L11.75,5 L9.85325,9.47525 L5,9.887 L8.6855,13.07975 L7.5785,17.825 L11.75,15.30725 Z" id="Shape" fill="#F5A623"></path>
                    <g id="Lines-Copy" transform="translate(5.000000, 6.000000)" stroke="#F5A623" stroke-width="0.5" stroke-linecap="square">
                        <path d="M4,2 L2.5,0.5" id="Line"></path>
                        <path d="M10,2 L11.5,0.5" id="Line-Copy"></path>
                        <path d="M2.05096549,8.05370642 L0.638990323,9.32505457" id="Line-Copy-3"></path>
                        <path d="M13.4597202,9.03822412 L12,7.99999998" id="Line-Copy-2"></path>
                        <path d="M6.69120911,12.8487227 L6.7107558,11.7288934" id="Line-Copy-4"></path>
                    </g>
                </g>
            </g>
            <g id="ic_star_black_24px-copy-3" transform="translate(168.000000, 0.000000)">
                <g id="Group">
                    <path d="M0,0 L24,0 L24,24 L0,24 L0,0 Z" id="Shape"></path>
                    <path d="M0,0 L24,0 L24,24 L0,24 L0,0 Z" id="Shape"></path>
                    <g id="Group-2" transform="translate(5.000000, 6.000000)" stroke="#F5A623" stroke-width="0.8" stroke-linecap="square">
                        <path d="M4,2 L2.5,0.5" id="Line"></path>
                        <path d="M10,2 L11.5,0.5" id="Line-Copy"></path>
                        <path d="M2.05096549,8.05370642 L0.474517255,9.47314679" id="Line-Copy-3"></path>
                        <path d="M13.4597202,9.03822412 L12,7.99999998" id="Line-Copy-2"></path>
                        <path d="M7.3961285,12.8487227 L7.4038715,11.7288934" id="Line-Copy-4"></path>
                    </g>
                    <path d="M12,16.743 L17.562,20.1 L16.086,13.773 L21,9.516 L14.529,8.967 L12,3 L9.471,8.967 L3,9.516 L7.914,13.773 L6.438,20.1 L12,16.743 Z" id="Shape" fill="#F5A623"></path>
                </g>
            </g>
            <g id="ic_star_black_24px-copy-2" transform="translate(192.000000, 0.000000)">
                <g id="Group">
                    <path d="M0,0 L24,0 L24,24 L0,24 L0,0 Z" id="Shape"></path>
                    <path d="M12,17.27 L18.18,21 L16.54,13.97 L22,9.24 L14.81,8.63 L12,2 L9.19,8.63 L2,9.24 L7.46,13.97 L5.82,21 L12,17.27 Z" id="Shape" fill="#F5A623"></path>
                    <path d="M0,0 L24,0 L24,24 L0,24 L0,0 Z" id="Shape"></path>
                    <g id="Group-2-Copy" transform="translate(5.000000, 6.000000)" stroke="#F5A623" stroke-linecap="square">
                        <path d="M4,2 L2.5,0.5" id="Line"></path>
                        <path d="M10,2 L11.5,0.5" id="Line-Copy"></path>
                        <path d="M2.05096549,8.05370642 L0.474517255,9.47314679" id="Line-Copy-3"></path>
                        <path d="M13.4597202,9.03822412 L12,7.99999998" id="Line-Copy-2"></path>
                        <path d="M6.49516062,12.8487227 L6.50483938,11.7288934" id="Line-Copy-4"></path>
                    </g>
                </g>
            </g>
            <g id="ic_star_black_24px-copy-5" transform="translate(216.000000, 0.000000)">
                <g id="Group">
                    <path d="M0,0 L24,0 L24,24 L0,24 L0,0 Z" id="Shape"></path>
                    <path d="M12,18.324 L19.416,22.8 L17.448,14.364 L24,8.688 L15.372,7.956 L12,0 L8.628,7.956 L0,8.688 L6.552,14.364 L4.584,22.8 L12,18.324 Z" id="Shape" fill="#F5A623"></path>
                    <path d="M0,0 L24,0 L24,24 L0,24 L0,0 Z" id="Shape"></path>
                </g>
            </g>
            <g id="ic_star_black_24px-copy-8" transform="translate(264.000000, 0.000000)">
                <g id="Group">
                    <path d="M0,0 L24,0 L24,24 L0,24 L0,0 Z" id="Shape"></path>
                    <path d="M12,17.27 L18.18,21 L16.54,13.97 L22,9.24 L14.81,8.63 L12,2 L9.19,8.63 L2,9.24 L7.46,13.97 L5.82,21 L12,17.27 Z" id="Shape" fill="#F5A623"></path>
                    <path d="M0,0 L24,0 L24,24 L0,24 L0,0 Z" id="Shape"></path>
                </g>
            </g>
            <g id="ic_star_black_24px-copy-7" transform="translate(240.000000, 0.000000)">
                <g id="Group">
                    <path d="M0,0 L24,0 L24,24 L0,24 L0,0 Z" id="Shape"></path>
                    <path d="M12,17.797 L18.798,21.9 L16.994,14.167 L23,8.964 L15.091,8.293 L12,1 L8.909,8.293 L1,8.964 L7.006,14.167 L5.202,21.9 L12,17.797 Z" id="Shape" fill="#F5A623"></path>
                    <path d="M0,0 L24,0 L24,24 L0,24 L0,0 Z" id="Shape"></path>
                </g>
            </g>
            <circle id="Oval-1" stroke="#F5A623" stroke-width="0.5" cx="156" cy="12" r="8"></circle>
            <circle id="Oval-1-Copy-2" stroke="#F5A623" stroke-width="0.3" cx="180" cy="12" r="10"></circle>
            <circle id="Oval-1-Copy-4" stroke="#F5A623" stroke-width="0.1" cx="204" cy="12" r="11"></circle>
            <circle id="Oval-1-Copy" stroke="#F5A623" stroke-width="0.8" cx="132" cy="12" r="7"></circle>
            <circle id="Oval-1-Copy-3" stroke="#F5A623" cx="108.5" cy="12.5" r="5.5"></circle>
        </g>
    </g>
</svg>